<svg width="9" height="18" viewBox="0 0 9 18" fill="none" xmlns="http://www.w3.org/2000/svg">
<path d="M0.910097 17.67C0.720097 17.67 0.530098 17.6 0.380098 17.45C0.0900977 17.16 0.0900977 16.68 0.380098 16.39L6.9001 9.87002C7.3801 9.39002 7.3801 8.61002 6.9001 8.13002L0.380098 1.61002C0.0900977 1.32002 0.0900977 0.84002 0.380098 0.55002C0.670098 0.26002 1.1501 0.26002 1.4401 0.55002L7.9601 7.07002C8.4701 7.58002 8.7601 8.27002 8.7601 9.00002C8.7601 9.73002 8.4801 10.42 7.9601 10.93L1.4401 17.45C1.2901 17.59 1.1001 17.67 0.910097 17.67Z" fill="white"/>
</svg>
