<svg width="34" height="34" viewBox="0 0 34 34" fill="none" xmlns="http://www.w3.org/2000/svg">
<path d="M31.7167 10.35L20.8 1.61668C18.6667 -0.0833231 15.3333 -0.0999897 13.2167 1.60001L2.30001 10.35C0.733343 11.6 -0.216657 14.1 0.116676 16.0667L2.21668 28.6333C2.70001 31.45 5.31668 33.6667 8.16667 33.6667H25.8333C28.65 33.6667 31.3167 31.4 31.8 28.6167L33.9 16.05C34.2 14.1 33.25 11.6 31.7167 10.35ZM18.25 27C18.25 27.6833 17.6833 28.25 17 28.25C16.3167 28.25 15.75 27.6833 15.75 27V22C15.75 21.3167 16.3167 20.75 17 20.75C17.6833 20.75 18.25 21.3167 18.25 22V27Z" fill="#616BDA"/>
</svg>
