<svg width="24" height="24" viewBox="0 0 24 24" fill="#616BDA" xmlns="http://www.w3.org/2000/svg">
<path d="M5 5L19 19" stroke="#616BDA" stroke-width="1.5" stroke-linecap="round"/>
<path fill-rule="evenodd" clip-rule="evenodd" d="M9.38971 9.45037C9.35034 9.411 9.2863 9.41128 9.24847 9.45212C8.62879 10.121 8.25 11.0163 8.25 12C8.25 14.0711 9.92893 15.75 12 15.75C12.9837 15.75 13.879 15.3712 14.5479 14.7515C14.5887 14.7137 14.589 14.6497 14.5496 14.6103L13.6298 13.6904C13.5912 13.6519 13.5291 13.6515 13.4882 13.6875C13.0916 14.0376 12.5706 14.25 12 14.25C10.7574 14.25 9.75 13.2426 9.75 12C9.75 11.4294 9.96241 10.9084 10.3125 10.5118C10.3485 10.4709 10.3481 10.4088 10.3096 10.3702L9.38971 9.45037ZM14.2754 12.2147C14.2547 12.194 14.2442 12.1653 14.246 12.136C14.2486 12.091 14.25 12.0457 14.25 12C14.25 10.7574 13.2426 9.75 12 9.75C11.9543 9.75 11.909 9.75136 11.864 9.75404C11.8347 9.75579 11.806 9.74532 11.7853 9.7246L10.6928 8.63213C10.6422 8.58155 10.6596 8.49592 10.7269 8.47164C11.1244 8.32819 11.5531 8.25 12 8.25C14.0711 8.25 15.75 9.92893 15.75 12C15.75 12.4469 15.6718 12.8756 15.5284 13.2731C15.5041 13.3404 15.4184 13.3578 15.3679 13.3072L14.2754 12.2147Z" fill="#616BDA"/>
<path fill-rule="evenodd" clip-rule="evenodd" d="M6.6166 6.6772C6.58538 6.64599 6.53714 6.63902 6.49839 6.66017C4.2754 7.8737 2.78117 9.58892 2.0117 10.6305C1.40544 11.4512 1.40544 12.5488 2.0117 13.3695C3.30079 15.1145 6.62395 18.75 12.0001 18.75C14.0413 18.75 15.7865 18.2259 17.2369 17.4802C17.2967 17.4494 17.3088 17.3694 17.2612 17.3218L16.2881 16.3487C16.2583 16.3189 16.213 16.311 16.1747 16.3287C14.9852 16.8802 13.5934 17.25 12.0001 17.25C7.3491 17.25 4.41552 14.099 3.21819 12.4782C3.00328 12.1873 3.00328 11.8127 3.21819 11.5218C3.97359 10.4992 5.42011 8.86757 7.55299 7.8024C7.61458 7.77164 7.62874 7.68934 7.58005 7.64066L6.6166 6.6772ZM17.6807 15.62C17.636 15.5752 17.6436 15.5007 17.6959 15.4652C19.1551 14.4762 20.1846 13.2868 20.7819 12.4782C20.9968 12.1873 20.9968 11.8127 20.7819 11.5218C19.5846 9.90104 16.651 6.75 12.0001 6.75C11.0112 6.75 10.1 6.89244 9.26661 7.13232C9.23143 7.14244 9.19352 7.1328 9.16763 7.10692L8.13321 6.0725C8.08173 6.02102 8.10073 5.93362 8.16929 5.90911C9.30321 5.50365 10.58 5.25 12.0001 5.25C17.3762 5.25 20.6993 8.88555 21.9884 10.6305C22.5947 11.4512 22.5947 12.5488 21.9884 13.3695C21.3721 14.2038 20.2908 15.4702 18.7425 16.5648C18.703 16.5928 18.6489 16.5881 18.6146 16.5539L17.6807 15.62Z" fill="#616BDA"/>
</svg>
