<svg width="14" height="18" viewBox="0 0 14 18" fill="none" xmlns="http://www.w3.org/2000/svg">
<path d="M2.83331 0.666626C2.17027 0.666626 1.53439 0.930018 1.06555 1.39886C0.596705 1.8677 0.333313 2.50358 0.333313 3.16663V14.8333C0.333313 15.4963 0.596705 16.1322 1.06555 16.6011C1.53439 17.0699 2.17027 17.3333 2.83331 17.3333H11.1666C11.8297 17.3333 12.4656 17.0699 12.9344 16.6011C13.4033 16.1322 13.6666 15.4963 13.6666 14.8333V14C13.6666 13.5397 13.2936 13.1666 12.8333 13.1666C12.3731 13.1666 12 13.5397 12 14V14.8333C12 15.0543 11.9122 15.2663 11.7559 15.4225C11.5996 15.5788 11.3877 15.6666 11.1666 15.6666H2.83331C2.6123 15.6666 2.40034 15.5788 2.24406 15.4225C2.08778 15.2663 1.99998 15.0543 1.99998 14.8333V3.16663C1.99998 2.94561 2.08778 2.73365 2.24406 2.57737C2.40034 2.42109 2.6123 2.33329 2.83331 2.33329H11.1666C11.3877 2.33329 11.5996 2.42109 11.7559 2.57737C11.9122 2.73365 12 2.94561 12 3.16663V3.99996C12 4.4602 12.3731 4.83329 12.8333 4.83329C13.2936 4.83329 13.6666 4.4602 13.6666 3.99996V3.16663C13.6666 2.50358 13.4033 1.8677 12.9344 1.39886C12.4656 0.930018 11.8297 0.666626 11.1666 0.666626H2.83331Z" fill="#CC8889"/>
<path d="M10.9226 5.9107C10.5971 5.58527 10.0695 5.58527 9.74406 5.9107C9.41862 6.23614 9.41862 6.76378 9.74406 7.08921L10.8215 8.16663H6.99998C6.53974 8.16663 6.16665 8.53972 6.16665 8.99996C6.16665 9.4602 6.53974 9.83329 6.99998 9.83329H10.8215L9.74406 10.9107C9.41862 11.2361 9.41862 11.7638 9.74406 12.0892C10.0695 12.4147 10.5971 12.4147 10.9226 12.0892L13.4226 9.58921C13.748 9.26378 13.748 8.73614 13.4226 8.4107L10.9226 5.9107Z" fill="#CC8889"/>
</svg>
