<svg width="18" height="19" viewBox="0 0 18 19" fill="none" xmlns="http://www.w3.org/2000/svg">
<path fill-rule="evenodd" clip-rule="evenodd" d="M5.61912 6.93087L12.0868 13.3919C12.6271 13.9317 12.4243 14.8494 11.7066 15.1117L10.9416 15.3912C10.9619 15.1765 10.8898 14.9547 10.7252 14.7902L4.72076 8.79192C4.64953 8.54476 4.45461 8.35001 4.20734 8.27903L4.03557 8.10743C3.93358 8.00554 3.80952 7.93911 3.67876 7.90815L3.89759 7.31063C4.16015 6.59369 5.07875 6.39106 5.61912 6.93087ZM3.1524 9.3454L0.166261 17.4992C-0.139495 18.334 0.671899 19.1446 1.50763 18.8392L3.25 18.2024L3.25 9.4429L3.1524 9.3454ZM4.75 10.9414L4.75 17.6542L6.25667 17.1035C6.25201 17.0697 6.2496 17.0352 6.2496 17.0001L6.2496 12.4394L4.75 10.9414ZM7.7496 13.9379L7.7496 16.5579L9.6698 15.8561C9.66786 15.8542 9.66592 15.8523 9.66399 15.8503L7.7496 13.9379Z" fill="white"/>
<circle cx="0.99835" cy="0.99835" r="0.99835" transform="matrix(0.707469 0.706745 -0.707469 0.706745 9.30151 1)" stroke="white" stroke-width="1.2"/>
<path d="M12.6512 1.99805C12.8867 2.46843 13.075 3.69144 11.9449 4.82036" stroke="white" stroke-width="1.5" stroke-linecap="round"/>
<path d="M15.8292 6.1709C15.3584 5.93571 14.1341 5.74755 13.004 6.87648" stroke="white" stroke-width="1.5" stroke-linecap="round"/>
<path d="M6.36646 3.1167C6.36646 3.1167 8.37848 5.23459 8.13221 7.70296" stroke="white" stroke-width="1.5" stroke-linecap="round"/>
<path d="M16.6078 13.3477C16.6078 13.3477 14.4877 11.3377 12.0168 11.5837" stroke="white" stroke-width="1.5" stroke-linecap="round"/>
<path d="M15.9404 8.98242V11.0992" stroke="white" stroke-width="1.2" stroke-linecap="round"/>
<path d="M16.9998 10.041L14.8809 10.041" stroke="white" stroke-width="1.2" stroke-linecap="round"/>
<path d="M9.99988 9L10.9999 8" stroke="white" stroke-width="1.5" stroke-linecap="round"/>
</svg>
